<svg xmlns="http://www.w3.org/2000/svg" viewBox="0 0 512 512" role="img" aria-label="mizanee app icon"><rect x="0" y="0" width="512" height="512" rx="120.3" fill="#0F6E56"/><g transform="translate(117.079,335.523) scale(0.15297,-0.15297)"><path d="M1436.9996337890625 0.0 1437.3330078125 655.6688232421875Q1437.3330078125 767.3360595703125 1382.0824279785156 829.83642578125Q1326.8318481445312 892.3367919921875 1233.331298828125 892.3367919921875Q1175.1644897460938 892.3367919921875 1129.2473449707031 865.4200744628906Q1083.3302001953125 838.5033569335938 1056.3297729492188 787.4195861816406Q1029.329345703125 736.3358154296875 1029.329345703125 664.66796875L921.996826171875 727.999755859375Q921.1633911132812 840.333251953125 972.6632690429688 925.8333129882812Q1024.1631469726562 1011.3333740234375 1111.9130554199219 1059.0000610351562Q1199.6629638671875 1106.666748046875 1307.6629638671875 1106.666748046875Q1487.3289794921875 1106.666748046875 1582.6624145507812 999.4170227050781Q1677.995849609375 892.1672973632812 1677.995849609375 716.66748046875L1677.6624755859375 0.0ZM138.3333740234375 0.0V1080.0H351.330078125V745.0028076171875H380.662841796875V0.0ZM788.66650390625 0.0 788.9998779296875 653.335205078125Q788.9998779296875 765.8358764648438 733.9993286132812 829.0863342285156Q678.998779296875 892.3367919921875 584.3314208984375 892.3367919921875Q492.49725341796875 892.3367919921875 436.5800476074219 829.2528991699219Q380.662841796875 766.1690063476562 380.662841796875 664.66796875L273.330322265625 736.6669921875Q273.330322265625 842.3336181640625 325.3302001953125 925.9169006347656Q377.330078125 1009.5001831054688 465.66326904296875 1058.0834655761719Q553.9964599609375 1106.666748046875 664.3297119140625 1106.666748046875Q785.3289794921875 1106.666748046875 866.5789489746094 1055.2503967285156Q947.8289184570312 1003.8340454101562 988.5791320800781 915.334228515625Q1029.329345703125 826.8344116210938 1029.329345703125 715.6673583984375L1028.9959716796875 0.0Z" fill="#FFFFFF"/></g></svg>