<svg xmlns="http://www.w3.org/2000/svg" viewBox="0 0 919.6 324.0" role="img" aria-label="mizanee"><rect x="0" y="0" width="919.6" height="324.0" rx="71.3" fill="#0F6E56"/><g transform="translate(126.896,219.592) scale(0.08027,-0.08027)"><path d="M1436.9996337890625 0.0 1437.3330078125 655.6688232421875Q1437.3330078125 767.3360595703125 1382.0824279785156 829.83642578125Q1326.8318481445312 892.3367919921875 1233.331298828125 892.3367919921875Q1175.1644897460938 892.3367919921875 1129.2473449707031 865.4200744628906Q1083.3302001953125 838.5033569335938 1056.3297729492188 787.4195861816406Q1029.329345703125 736.3358154296875 1029.329345703125 664.66796875L921.996826171875 727.999755859375Q921.1633911132812 840.333251953125 972.6632690429688 925.8333129882812Q1024.1631469726562 1011.3333740234375 1111.9130554199219 1059.0000610351562Q1199.6629638671875 1106.666748046875 1307.6629638671875 1106.666748046875Q1487.3289794921875 1106.666748046875 1582.6624145507812 999.4170227050781Q1677.995849609375 892.1672973632812 1677.995849609375 716.66748046875L1677.6624755859375 0.0ZM138.3333740234375 0.0V1080.0H351.330078125V745.0028076171875H380.662841796875V0.0ZM788.66650390625 0.0 788.9998779296875 653.335205078125Q788.9998779296875 765.8358764648438 733.9993286132812 829.0863342285156Q678.998779296875 892.3367919921875 584.3314208984375 892.3367919921875Q492.49725341796875 892.3367919921875 436.5800476074219 829.2528991699219Q380.662841796875 766.1690063476562 380.662841796875 664.66796875L273.330322265625 736.6669921875Q273.330322265625 842.3336181640625 325.3302001953125 925.9169006347656Q377.330078125 1009.5001831054688 465.66326904296875 1058.0834655761719Q553.9964599609375 1106.666748046875 664.3297119140625 1106.666748046875Q785.3289794921875 1106.666748046875 866.5789489746094 1055.2503967285156Q947.8289184570312 1003.8340454101562 988.5791320800781 915.334228515625Q1029.329345703125 826.8344116210938 1029.329345703125 715.6673583984375L1028.9959716796875 0.0Z M1958.0 1243.6683349609375V1464.9993896484375H2198.662841796875V1243.6683349609375ZM1958.0 0V1080H2198.662841796875V0.0Z M2399.0 0V33.333251953125L2970.6717529296875 868.669677734375H2456.999755859375V1080.0H3346.3330078125V1046.0L2776.327880859375 211.330322265625H3321.665771484375V0.0Z M3868.3336181640625 -30.0Q3750.666748046875 -30.0 3669.750030517578 14.416656494140625Q3588.8333129882812 58.83331298828125 3547.4166564941406 132.91659545898438Q3506.0 206.9998779296875 3506.0 295.999755859375Q3506.0 374.33349609375 3532.083709716797 436.4168395996094Q3558.1674194335938 498.50018310546875 3612.2510681152344 544.0832824707031Q3666.334716796875 589.6663818359375 3751.6678466796875 618.9993896484375Q3817.335205078125 640.4993286132812 3904.4190368652344 657.0826110839844Q3991.5028686523438 673.6658935546875 4094.1692504882812 688.2491149902344Q4196.835632324219 702.8323364257812 4309.333984375 719.6654052734375L4222.668701171875 671.332763671875Q4223.502136230469 783.1680297851562 4172.751556396484 836.2523498535156Q4122.0009765625 889.336669921875 4000.666015625 889.336669921875Q3927.997802734375 889.336669921875 3860.080780029297 855.0860290527344Q3792.1637573242188 820.8353881835938 3764.9969482421875 738.3343505859375L3544.666748046875 807.333251953125Q3584.8333129882812 944.000244140625 3697.583282470703 1027.0001220703125Q3810.333251953125 1110.0 4001.332763671875 1110.0Q4145.499572753906 1110.0 4254.666015625 1063.1663208007812Q4363.832458496094 1016.3326416015625 4417.33203125 908.9993896484375Q4446.3316650390625 852.3331298828125 4452.3316650390625 792.8331909179688Q4458.3316650390625 733.333251953125 4458.3316650390625 662.6669921875V0.0H4247.0015869140625V234.3348388671875L4282.001708984375 195.6690673828125Q4209.00244140625 79.16815185546875 4111.418365478516 24.584075927734375Q4013.8342895507812 -30.0 3868.3336181640625 -30.0ZM3915.9990234375 162.3306884765625Q3997.9998779296875 162.3306884765625 4055.833984375 191.41433715820312Q4113.6680908203125 220.49798583984375 4148.335266113281 262.0822448730469Q4183.00244140625 303.66650390625 4194.669189453125 341.3349609375Q4213.502258300781 387.335205078125 4216.418853759766 446.7519836425781Q4219.33544921875 506.16876220703125 4219.33544921875 543.335205078125L4293.334716796875 521.0015869140625Q4183.66943359375 503.50189208984375 4105.585723876953 490.8353271484375Q4027.5020141601562 478.16876220703125 3971.8341674804688 466.7520446777344Q3916.1663208007812 455.3353271484375 3872.9986572265625 441.0018310546875Q3831.4984741210938 425.6685791015625 3802.414581298828 405.9184265136719Q3773.3306884765625 386.16827392578125 3757.8302001953125 360.0010986328125Q3742.3297119140625 333.83392333984375 3742.3297119140625 298.9996337890625Q3742.3297119140625 259.49932861328125 3762.079864501953 228.58212280273438Q3781.8300170898438 197.6649169921875 3820.4139099121094 179.997802734375Q3858.997802734375 162.3306884765625 3915.9990234375 162.3306884765625Z M5465.0013427734375 0.0V520.3345947265625Q5465.0013427734375 570.5028686523438 5457.750946044922 632.50341796875Q5450.500549316406 694.5039672851562 5425.3333740234375 752.0872497558594Q5400.166198730469 809.6705322265625 5349.665832519531 846.6702880859375Q5299.165466308594 883.6700439453125 5212.66552734375 883.6700439453125Q5166.99755859375 883.6700439453125 5122.080291748047 868.7528991699219Q5077.163024902344 853.8357543945312 5040.829528808594 817.5851745605469Q5004.496032714844 781.3345947265625 4982.412750244141 717.5009155273438Q4960.3294677734375 653.667236328125 4960.3294677734375 555.0008544921875L4817.3310546875 616.3326416015625Q4817.3310546875 753.8338012695312 4870.831237792969 866.0838317871094Q4924.3314208984375 978.3338623046875 5028.1646728515625 1044.5001831054688Q5131.9979248046875 1110.66650390625 5284.3304443359375 1110.66650390625Q5403.829528808594 1110.66650390625 5481.912628173828 1071.000244140625Q5559.9957275390625 1031.333984375 5605.995910644531 969.0844421386719Q5651.99609375 906.8348999023438 5673.9964599609375 836.7517395019531Q5695.996826171875 766.6685791015625 5702.497131347656 704.0848083496094Q5708.9974365234375 641.5010375976562 5708.9974365234375 602.9996337890625V0.0ZM4716.3333740234375 0.0V1080.0H4930.9967041015625V745.0028076171875H4960.3294677734375V0.0Z M6459.665283203125 -30.0Q6295.832214355469 -30.0 6171.999206542969 41.083282470703125Q6048.166198730469 112.16656494140625 5978.583099365234 238.08328247070312Q5909.0 364 5909.0 528.3336181640625Q5909.0 705.3336181640625 5977.249786376953 835.8335571289062Q6045.499572753906 966.33349609375 6166.415985107422 1038.166748046875Q6287.3323974609375 1110.0 6446.332275390625 1110.0Q6613.831970214844 1110.0 6731.331787109375 1031.6668701171875Q6848.831604003906 953.333740234375 6906.081634521484 810.333984375Q6963.3316650390625 667.334228515625 6949.165344238281 472.667724609375H6710.0023193359375V560.666259765625Q6709.002197265625 737.0009765625 6648.001159667969 818.168701171875Q6587.0001220703125 899.33642578125 6456.33203125 899.33642578125Q6308.497619628906 899.33642578125 6236.246795654297 807.6688842773438Q6163.9959716796875 716.0013427734375 6163.9959716796875 540.0Q6163.9959716796875 375.6650390625 6236.246795654297 285.66412353515625Q6308.497619628906 195.6632080078125 6446.332275390625 195.6632080078125Q6535.3333740234375 195.6632080078125 6599.6676025390625 235.3304443359375Q6664.0018310546875 274.9976806640625 6699.00244140625 349.6654052734375L6937.3316650390625 277.99951171875Q6875.498229980469 131.6663818359375 6745.748443603516 50.83319091796875Q6615.9986572265625 -30.0 6459.665283203125 -30.0ZM6087.9969482421875 472.667724609375V654.9986572265625H6831.3336181640625V472.667724609375Z M7663.665283203125 -30.0Q7499.832214355469 -30.0 7375.999206542969 41.083282470703125Q7252.166198730469 112.16656494140625 7182.583099365234 238.08328247070312Q7113.0 364 7113.0 528.3336181640625Q7113.0 705.3336181640625 7181.249786376953 835.8335571289062Q7249.499572753906 966.33349609375 7370.415985107422 1038.166748046875Q7491.3323974609375 1110.0 7650.332275390625 1110.0Q7817.831970214844 1110.0 7935.331787109375 1031.6668701171875Q8052.831604003906 953.333740234375 8110.081634521484 810.333984375Q8167.3316650390625 667.334228515625 8153.165344238281 472.667724609375H7914.0023193359375V560.666259765625Q7913.002197265625 737.0009765625 7852.001159667969 818.168701171875Q7791.0001220703125 899.33642578125 7660.33203125 899.33642578125Q7512.497619628906 899.33642578125 7440.246795654297 807.6688842773438Q7367.9959716796875 716.0013427734375 7367.9959716796875 540.0Q7367.9959716796875 375.6650390625 7440.246795654297 285.66412353515625Q7512.497619628906 195.6632080078125 7650.332275390625 195.6632080078125Q7739.3333740234375 195.6632080078125 7803.6676025390625 235.3304443359375Q7868.0018310546875 274.9976806640625 7903.00244140625 349.6654052734375L8141.3316650390625 277.99951171875Q8079.498229980469 131.6663818359375 7949.748443603516 50.83319091796875Q7819.9986572265625 -30.0 7663.665283203125 -30.0ZM7291.9969482421875 472.667724609375V654.9986572265625H8035.3336181640625V472.667724609375Z" fill="#FFFFFF"/></g></svg>